<?xml version="1.0" ?><svg id="Layer_3" style="enable-background:new 0 0 64 64;" version="1.1" viewBox="0 0 64 64" xml:space="preserve" xmlns="http://www.w3.org/2000/svg" xmlns:xlink="http://www.w3.org/1999/xlink"><g><path d="M63,2c0-0.552-0.447-1-1-1H2C1.447,1,1,1.448,1,2v41c0,1.654,1.346,3,3,3h22v9h-4c-0.553,0-1,0.448-1,1v6   c0,0.552,0.447,1,1,1h20c0.553,0,1-0.448,1-1v-6c0-0.552-0.447-1-1-1h-4v-9h9v14c0,1.654,1.346,3,3,3h5c1.654,0,3-1.346,3-3v-1   c2.757,0,5-2.243,5-5v-7c0-0.803-0.243-1.548-0.652-2.176C62.75,44.305,63,43.674,63,43V2z M61,3v31H3V3H61z M3,43v-7h58v7   c0,0.173-0.047,0.339-0.129,0.486C60.31,43.186,59.68,43,59,43h-4c-1.005,0-1.914,0.385-2.618,1H4C3.448,44,3,43.551,3,43z M53,47   c0-1.103,0.897-2,2-2h1v2h2v-2h1c1.103,0,2,0.897,2,2v2h-8V47z M41,61H23v-4h4h10h4V61z M36,55h-8v-9h8V55z M56,60   c0,0.551-0.448,1-1,1h-5c-0.552,0-1-0.449-1-1V46h2.142C51.058,46.322,51,46.653,51,47v7c0,2.757,2.243,5,5,5V60z M58,57h-2   c-1.654,0-3-1.346-3-3v-3h8v3C61,55.654,59.654,57,58,57z"/><path d="M8,32h48c0.553,0,1-0.448,1-1V6c0-0.552-0.447-1-1-1H8C7.447,5,7,5.448,7,6v25C7,31.552,7.447,32,8,32z M9,7h46v23H9V7z"/><path d="M32,9H12c-0.553,0-1,0.448-1,1v17c0,0.552,0.447,1,1,1h20c0.553,0,1-0.448,1-1V10C33,9.448,32.553,9,32,9z M31,26H13V11h18   V26z"/><path d="M17.475,23.851C17.635,23.95,17.817,24,18,24c0.153,0,0.306-0.035,0.447-0.105l8-4c0.323-0.162,0.534-0.486,0.552-0.847   c0.017-0.361-0.162-0.704-0.469-0.896l-8-5c-0.31-0.192-0.699-0.204-1.015-0.026C17.197,13.302,17,13.636,17,14v9   C17,23.347,17.18,23.668,17.475,23.851z M19,15.804l4.958,3.099L19,21.382V15.804z"/><path d="M52,9H36c-0.553,0-1,0.448-1,1v4c0,0.552,0.447,1,1,1h16c0.553,0,1-0.448,1-1v-4C53,9.448,52.553,9,52,9z M51,13H37v-2h14   V13z"/><path d="M52,22H36c-0.553,0-1,0.448-1,1v4c0,0.552,0.447,1,1,1h16c0.553,0,1-0.448,1-1v-4C53,22.448,52.553,22,52,22z M51,26H37v-2   h14V26z"/></g></svg>