<?xml version="1.0" encoding="utf-8"?>
<!-- Svg Vector Icons : http://www.onlinewebfonts.com/icon -->
<!DOCTYPE svg PUBLIC "-//W3C//DTD SVG 1.1//EN" "http://www.w3.org/Graphics/SVG/1.1/DTD/svg11.dtd">
<svg version="1.1" xmlns="http://www.w3.org/2000/svg" xmlns:xlink="http://www.w3.org/1999/xlink" x="0px" y="0px" viewBox="0 0 1000 1000" enable-background="new 0 0 1000 1000" xml:space="preserve">
<metadata> Svg Vector Icons : http://www.onlinewebfonts.com/icon </metadata>
<g><g transform="translate(0.000000,512.000000) scale(0.100000,-0.100000)"><path d="M6026.9,4999.7c-235.7-55.6-398.5-137.9-590.1-302.7l-111.1-95.8l-122.6,32.6c-283.6,78.6-594-44.1-753-295.1c-65.1-101.6-78.6-113-170.5-132.2c-224.2-47.9-452.2-206.9-580.5-406.2c-182-283.6-182-693.6,0-977.1c126.5-197.3,360.2-360.2,580.5-404.3c92-19.2,103.5-28.7,157.1-116.9c151.4-254.8,473.3-385.1,764.5-312.3l130.3,32.6l59.4-55.6c367.9-341,854.6-452.2,1306.7-297c168.6,59.4,381.3,187.8,486.7,297c61.3,65.2,65.1,67.1,124.5,42.2c293.1-122.6,710.8,38.3,848.8,325.7c24.9,53.6,44.1,65.1,132.2,84.3c358.3,70.9,655.3,383.2,716.6,751.1c78.5,465.6-245.2,940.8-708.9,1036.6c-101.5,19.2-113.1,28.7-153.3,105.4c-61.3,116.9-210.8,245.2-341,293.1c-157.1,59.4-277.8,67.1-431.1,28.7l-130.3-32.6l-84.3,78.6c-233.8,214.6-503.9,325.7-823.9,339.1C6210.8,5022.7,6099.7,5016.9,6026.9,4999.7z M6601.7,4756.4c157.1-47.9,323.8-159,450.3-298.9l101.5-115l84.3,47.9c115,63.2,291.3,76.6,429.2,32.6c132.2-44.1,270.2-178.2,316.1-310.4l34.5-97.7l118.8-9.6c379.4-28.7,662.9-360.2,636.1-741.5c-24.9-339.1-295-609.3-630.4-628.4l-124.5-7.7l-24.9-84.3c-34.5-116.9-168.6-260.6-293.1-314.2c-143.7-61.3-310.4-57.5-450.3,9.6l-105.4,51.7l-28.7-44.1c-63.2-95.8-235.7-241.4-352.5-300.8c-185.8-92-341.1-126.5-534.6-113.1c-327.6,23-603.5,178.2-797.1,452.2c-3.8,1.9-51.7-17.2-109.2-46c-281.7-136-630.4,3.8-735.7,295.1l-34.5,97.7H4452c-279.7,0-549.9,218.4-628.4,507.7c-111.1,410,180.1,825.8,605.4,864.1l124.5,13.4l32.6,88.1c42.2,120.7,124.5,212.7,245.3,279.7c90,49.8,122.6,57.5,256.7,57.5c130.3,0,166.7-7.7,241.4-49.8l88.2-49.8l101.5,115C5800.8,4769.8,6199.4,4880.9,6601.7,4756.4z"/><path d="M6203.2,4392.3c-274-44.1-505.8-281.6-542.2-557.6l-13.4-92h203.1h205l11.5,53.6c61.3,247.2,402.4,266.3,486.7,26.8c24.9-70.9,24.9-90.1,0-161c-47.9-132.2-101.5-157.1-360.2-168.6l-224.2-9.6v-306.6V2871h201.2h201.2l5.7,111.1c5.7,92,11.5,109.2,42.1,109.2c92,0,260.6,86.2,354.5,180.1c151.4,151.4,191.6,251,191.6,471.3c0,222.3-42.2,321.9-195.4,473.3C6622.8,4361.7,6414,4426.8,6203.2,4392.3z"/><path d="M6038.4,2685.2c-275.9-147.5-170.5-551.8,143.7-551.8c297,0,402.4,362.1,159,542.2C6260.7,2735,6138,2738.8,6038.4,2685.2z"/><path d="M2679.7,2288.6c-124.5-40.2-216.5-93.9-281.7-162.9c-57.5-61.3-72.8-61.3-130.3-9.6c-61.3,59.4-220.3,72.8-306.6,26.8c-92-49.8-956.1-1207.1-975.2-1304.8c-9.6-49.8-1.9-95.8,23-157.1c34.5-80.5,78.6-115,630.4-509.7l594-425.3l15.3-2124.8c15.3-2086.5,17.2-2128.7,55.6-2209.1c57.5-122.6,162.9-185.9,312.3-185.9c95.8,0,132.2,9.6,197.3,53.6c44.1,28.7,97.7,86.2,118.8,128.4c36.4,72.8,38.3,109.2,38.3,1149.6v1073h67.1h67.1v-1067.2c0-1048.1,0-1067.2,40.2-1151.5c124.5-254.8,500.1-256.7,630.4-1.9c38.3,70.9,38.3,120.7,38.3,2055.9c0,1283.7,7.7,2000.3,19.2,2032.9c11.5,28.7,28.7,47.9,40.2,44.1c11.5-3.8,74.7-174.3,139.9-379.4l120.7-373.6l-15.3-574.8c-15.3-500.1-13.4-584.4,13.4-655.3c72.8-197.3,331.5-239.5,482.8-76.6c61.3,67.1,74.7,189.7,88.1,835.4l11.5,563.3l-182,567.1c-266.3,825.8-237.6,772.1-454.1,877.5c-233.8,113-749.2,245.2-779.8,201.2c-5.8-9.6-61.3-86.2-120.7-170.5l-111.1-155.2l115-800.9c63.2-440.7,115-816.2,115-835.4c0-17.2-57.5-99.6-128.4-180.1l-128.4-147.5l-65.1,74.7c-36.4,40.2-95.8,111.1-132.2,155.2l-67.1,82.4l116.9,823.9c65.1,454.1,113,835.4,103.5,848.8c-46,78.6-222.2,310.4-231.8,310.4c-7.7,0-130.3-17.2-274-36.4l-262.5-36.4l-258.7,183.9c-143.7,103.5-264.4,193.5-270.2,203.1c-9.6,15.3,408.1,594,431.1,595.9c7.7,0,17.2-34.5,24.9-78.6c44.1-270.2,314.2-530.7,613.1-592c343-69,718.5,126.5,869.9,454.1c44.1,97.7,49.8,136,49.8,312.3c1.9,180.1-3.8,212.7-51.7,314.2c-69,149.5-162.9,260.6-281.7,337.2C3152.9,2321.1,2896.2,2357.6,2679.7,2288.6z"/><path d="M4875.4,1711.9c-264.4-59.4-360.2-373.6-172.4-563.3c159-157.1,434.9-115,538.4,86.2c34.5,63.2,38.3,231.8,7.7,291.2C5176.2,1667.8,5021,1744.4,4875.4,1711.9z"/><path d="M4038.1,1211.8c-55.6-32.6-93.9-130.3-82.4-201.2c26.8-141.8,212.7-191.6,320-86.2c32.6,34.5,55.6,76.6,55.6,107.3c0,65.1-47.9,157.1-93.9,182C4189.5,1238.6,4082.2,1236.7,4038.1,1211.8z"/></g></g>
</svg>